<svg version="1.1" xmlns="http://www.w3.org/2000/svg" xmlns:xlink="http://www.w3.org/1999/xlink" viewBox="0 0 172 172"><g fill="none" fill-rule="nonzero" stroke="none" stroke-width="1" stroke-linecap="butt" stroke-linejoin="miter" stroke-miterlimit="10" stroke-dasharray="" stroke-dashoffset="0" font-family="none" font-weight="none" font-size="none" text-anchor="none" style="mix-blend-mode: normal"><path d="M0,172v-172h172v172z" fill="none"></path><g><circle cx="24" cy="39" transform="scale(3.58333,3.58333)" r="8" fill="#333333"></circle><circle cx="9" cy="24" transform="scale(3.58333,3.58333)" r="8" fill="#333333"></circle><circle cx="24" cy="9" transform="scale(3.58333,3.58333)" r="8" fill="#333333"></circle><circle cx="39" cy="24" transform="scale(3.58333,3.58333)" r="8" fill="#333333"></circle><path d="M86,20.5755l11.96117,19.74775h-23.92233l11.96117,-19.74775M86,10.20175l-21.5,35.50008h43l-21.5,-35.50008z" fill="#69f0ae"></path><path d="M49.27083,103.02083h-34.04167v-34.04167h34.04167zM20.60417,97.64583h23.29167v-23.29167h-23.29167z" fill="#ff80ab"></path><path d="M139.75,106.60417c-11.36275,0 -20.60417,-9.245 -20.60417,-20.60417c0,-11.35917 9.24142,-20.60417 20.60417,-20.60417c11.36275,0 20.60417,9.245 20.60417,20.60417c0,11.35917 -9.24142,20.60417 -20.60417,20.60417zM139.75,70.77083c-8.39933,0 -15.22917,6.83342 -15.22917,15.22917c0,8.39575 6.82983,15.22917 15.22917,15.22917c8.39933,0 15.22917,-6.83342 15.22917,-15.22917c0,-8.39575 -6.82983,-15.22917 -15.22917,-15.22917z" fill="#ff5252"></path><path d="M104.02417,125.52417l-3.79833,-3.79833l-14.22583,14.22225l-14.22583,-14.22225l-3.79833,3.79833l14.22225,14.22583l-14.22225,14.22583l3.79833,3.79833l14.22583,-14.22225l14.22583,14.22225l3.79833,-3.79833l-14.22225,-14.22583z" fill="#80d8ff"></path></g></g></svg>